G04 EAGLE Gerber X2 export*
%TF.Part,Single*%
%TF.FileFunction,Copper,L2,Bot,Mixed*%
%TF.FilePolarity,Positive*%
%TF.GenerationSoftware,Autodesk,EAGLE,9.0.0*%
%TF.CreationDate,2018-06-01T03:22:50Z*%
G75*
%MOMM*%
%FSLAX34Y34*%
%LPD*%
%AMOC8*
5,1,8,0,0,1.08239X$1,22.5*%
G01*
%ADD10C,1.676400*%
%ADD11P,2.749271X8X22.500000*%
%ADD12C,1.676400*%
%ADD13C,1.981200*%
%ADD14P,1.429621X8X22.500000*%
%ADD15C,1.320800*%
%ADD16C,1.879600*%
%ADD17R,1.308000X1.308000*%
%ADD18C,1.308000*%
%ADD19C,2.540000*%
%ADD20C,1.778000*%
%ADD21C,0.254000*%
%ADD22C,1.270000*%
%ADD23C,1.016000*%
%ADD24C,0.812800*%


D10*
X355600Y241300D03*
X355600Y342900D03*
D11*
X418600Y24000D03*
X418600Y178000D03*
X124600Y76000D03*
X124600Y126000D03*
D12*
X461518Y76200D02*
X478282Y76200D01*
X478282Y50800D02*
X461518Y50800D01*
X461518Y25400D02*
X478282Y25400D01*
D13*
X321056Y304800D02*
X301244Y304800D01*
X300736Y364490D02*
X280924Y364490D01*
X280924Y245110D02*
X300736Y245110D01*
X178816Y245110D02*
X159004Y245110D01*
X159004Y364490D02*
X178816Y364490D01*
D14*
X431800Y292100D03*
X457200Y292100D03*
D15*
X393700Y381000D02*
X380492Y381000D01*
X380492Y355600D02*
X393700Y355600D01*
X469900Y355600D02*
X483108Y355600D01*
X483108Y381000D02*
X469900Y381000D01*
X520700Y209804D02*
X520700Y196596D01*
X571500Y196596D02*
X571500Y209804D01*
X546100Y209804D02*
X546100Y196596D01*
D16*
X482600Y330200D03*
X482600Y254000D03*
X584200Y50800D03*
X508000Y50800D03*
X393700Y254000D03*
X393700Y330200D03*
D17*
X609750Y348475D03*
X533550Y348475D03*
D18*
X584350Y348475D03*
X558950Y348475D03*
X558950Y373875D03*
X584350Y373875D03*
X609750Y373875D03*
X533550Y373875D03*
D13*
X73406Y354838D02*
X53594Y354838D01*
X53594Y304800D02*
X73406Y304800D01*
X73406Y254762D02*
X53594Y254762D01*
X53594Y126746D02*
X73406Y126746D01*
X73406Y76454D02*
X53594Y76454D01*
X596646Y78994D02*
X596646Y98806D01*
X546354Y98806D02*
X546354Y78994D01*
D19*
X311150Y304800D02*
X63500Y304800D01*
X63500Y354838D02*
X168910Y354838D01*
X168910Y364490D01*
X168910Y254762D02*
X63500Y254762D01*
X168910Y254762D02*
X168910Y245110D01*
D20*
X419100Y25400D02*
X469900Y25400D01*
D21*
X419100Y25400D02*
X418600Y24000D01*
D20*
X393700Y381000D02*
X355600Y381000D01*
X355600Y365125D02*
X355600Y342900D01*
D21*
X355600Y365125D02*
X355600Y381000D01*
D20*
X393700Y381000D02*
X469900Y381000D01*
X355600Y365125D02*
X292100Y365125D01*
D21*
X290830Y364490D01*
X415925Y25400D02*
X418600Y24000D01*
D20*
X482600Y342900D02*
X469900Y355600D01*
X482600Y342900D02*
X482600Y330200D01*
D22*
X546100Y254000D02*
X546100Y203200D01*
X546100Y254000D02*
X482600Y254000D01*
D21*
X609750Y348475D02*
X609600Y349250D01*
D20*
X546100Y76200D02*
X469900Y76200D01*
D21*
X546100Y76200D02*
X546100Y88900D01*
X546354Y88900D01*
D20*
X469900Y127000D02*
X419100Y177800D01*
X469900Y127000D02*
X469900Y76200D01*
D21*
X419100Y177800D02*
X418600Y178000D01*
D20*
X561975Y168275D02*
X571500Y203200D01*
X561975Y168275D02*
X549275Y88900D01*
D21*
X546354Y88900D01*
D23*
X609600Y228600D02*
X609600Y349250D01*
X609600Y228600D02*
X571500Y228600D01*
X571500Y203200D01*
D20*
X520700Y203200D02*
X355600Y203200D01*
X355600Y241300D01*
X355600Y244475D02*
X292100Y244475D01*
D21*
X355600Y244475D02*
X355600Y241300D01*
X292100Y244475D02*
X290830Y245110D01*
D22*
X555625Y292100D02*
X558800Y346075D01*
D20*
X555625Y292100D02*
X457200Y292100D01*
D21*
X558800Y346075D02*
X558950Y348475D01*
D20*
X584200Y88900D02*
X584200Y50800D01*
X584200Y88900D02*
X596646Y88900D01*
D19*
X127000Y126746D02*
X63500Y126746D01*
X127000Y126746D02*
X127000Y127000D01*
D21*
X124600Y126000D01*
D19*
X124600Y76454D02*
X63500Y76454D01*
X124600Y76454D02*
X124600Y76000D01*
D24*
X536575Y374650D02*
X546100Y384175D01*
X584200Y396875D01*
X584200Y374650D01*
D21*
X536575Y374650D02*
X533550Y373875D01*
X584200Y374650D02*
X584350Y373875D01*
D20*
X508000Y50800D02*
X469900Y50800D01*
D24*
X584200Y396875D02*
X635000Y384175D01*
D20*
X635000Y57150D01*
X577850Y12700D01*
X508000Y50800D01*
X393700Y330200D02*
X393700Y355600D01*
X431800Y292100D02*
X393700Y254000D01*
M02*
