M48
;GenerationSoftware,Autodesk,EAGLE,9.0.0*%
;CreationDate,2018-06-01T03:22:50Z*%
FMAT,2
ICI,OFF
METRIC,TZ,000.000
T5C0.800
T4C0.813
T3C0.900
T2C1.118
T1C1.321
%
G90
M71
T1
X29083Y36449
X16891Y24511
X16891Y36449
X6350Y35484
X6350Y30480
X54635Y8890
X59665Y8890
X6350Y7645
X6350Y12675
X31115Y30480
X6350Y25476
X29083Y24511
T2
X35560Y34290
X46990Y5080
X46990Y2540
X35560Y24130
X46990Y7620
T3
X48260Y33020
X48260Y25400
X58420Y5080
X50800Y5080
X39370Y33020
X39370Y25400
T4
X43180Y29210
X45720Y29210
X54610Y20320
X57150Y20320
X52070Y20320
X39370Y35560
X46990Y38100
X46990Y35560
X39370Y38100
T5
X41860Y2400
X41860Y17800
X12460Y7600
X12460Y12600
X60975Y34848
X53355Y34848
X58435Y34848
X55895Y34848
X58435Y37388
X60975Y37388
X53355Y37388
X55895Y37388
M30