G04 EAGLE Gerber X2 export*
%TF.Part,Single*%
%TF.FileFunction,Soldermask,Bot,1*%
%TF.FilePolarity,Negative*%
%TF.GenerationSoftware,Autodesk,EAGLE,9.0.0*%
%TF.CreationDate,2018-06-01T03:22:50Z*%
G75*
%MOMM*%
%FSLAX34Y34*%
%LPD*%
%AMOC8*
5,1,8,0,0,1.08239X$1,22.5*%
G01*
%ADD10C,1.879600*%
%ADD11P,2.969212X8X22.500000*%
%ADD12C,1.879600*%
%ADD13C,2.184400*%
%ADD14P,1.649562X8X22.500000*%
%ADD15C,1.524000*%
%ADD16C,2.082800*%
%ADD17R,1.511200X1.511200*%
%ADD18C,1.511200*%
%ADD19C,0.254000*%


D10*
X355600Y241300D03*
X355600Y342900D03*
D11*
X418600Y24000D03*
X418600Y178000D03*
X124600Y76000D03*
X124600Y126000D03*
D12*
X461518Y76200D02*
X478282Y76200D01*
X478282Y50800D02*
X461518Y50800D01*
X461518Y25400D02*
X478282Y25400D01*
D13*
X321056Y304800D02*
X301244Y304800D01*
X300736Y364490D02*
X280924Y364490D01*
X280924Y245110D02*
X300736Y245110D01*
X178816Y245110D02*
X159004Y245110D01*
X159004Y364490D02*
X178816Y364490D01*
D14*
X431800Y292100D03*
X457200Y292100D03*
D15*
X393700Y381000D02*
X380492Y381000D01*
X380492Y355600D02*
X393700Y355600D01*
X469900Y355600D02*
X483108Y355600D01*
X483108Y381000D02*
X469900Y381000D01*
X520700Y209804D02*
X520700Y196596D01*
X571500Y196596D02*
X571500Y209804D01*
X546100Y209804D02*
X546100Y196596D01*
D16*
X482600Y330200D03*
X482600Y254000D03*
X584200Y50800D03*
X508000Y50800D03*
X393700Y254000D03*
X393700Y330200D03*
D17*
X609750Y348475D03*
X533550Y348475D03*
D18*
X584350Y348475D03*
X558950Y348475D03*
X558950Y373875D03*
X584350Y373875D03*
X609750Y373875D03*
X533550Y373875D03*
D13*
X73406Y354838D02*
X53594Y354838D01*
X53594Y304800D02*
X73406Y304800D01*
X73406Y254762D02*
X53594Y254762D01*
X53594Y126746D02*
X73406Y126746D01*
X73406Y76454D02*
X53594Y76454D01*
X596646Y78994D02*
X596646Y98806D01*
X546354Y98806D02*
X546354Y78994D01*
D19*
X-12700Y0D02*
X647500Y0D01*
X647500Y403100D01*
X-12700Y403100D01*
X-12700Y0D01*
M02*
